<svg width="1000" height="500" viewBox="0 0 1000 500" fill="none" xmlns="http://www.w3.org/2000/svg">
<path fill-rule="evenodd" clip-rule="evenodd" d="M1000 0H0V500H1000V0ZM777.163 385.191C792.239 421.589 799.999 460.599 799.999 499.996H499.999L199.999 499.996C199.999 460.599 207.759 421.589 222.835 385.191C237.912 348.793 260.009 315.722 287.867 287.864C315.725 260.006 348.796 237.909 385.194 222.832C421.592 207.756 460.602 199.996 499.999 199.996C539.396 199.996 578.406 207.756 614.804 222.832C651.202 237.909 684.273 260.006 712.131 287.864C739.989 315.721 762.086 348.793 777.163 385.191Z" fill="#FBF6ED"/>
</svg>
