<svg width="500" height="500" viewBox="0 0 500 500" fill="none" xmlns="http://www.w3.org/2000/svg">
<path fill-rule="evenodd" clip-rule="evenodd" d="M0 0H500V250V500H0V250V0ZM388.584 192.598C396.122 210.797 400.002 230.303 400.002 250.001H250.002L100.002 250.001C100.002 230.303 103.882 210.797 111.42 192.599C118.959 174.4 130.007 157.864 143.936 143.935C157.865 130.006 174.401 118.957 192.6 111.419C210.799 103.881 230.304 100.001 250.002 100.001C269.701 100.001 289.206 103.881 307.405 111.419C325.604 118.957 342.14 130.006 356.068 143.935C369.997 157.864 381.046 174.4 388.584 192.598Z" fill="#FBF6ED"/>
</svg>
